<?xml version="1.0" encoding="UTF-8"?>
<!DOCTYPE svg PUBLIC "-//W3C//DTD SVG 1.1//EN" "http://www.w3.org/Graphics/SVG/1.1/DTD/svg11.dtd">
<!-- Creator: CorelDRAW X7 -->
<svg xmlns="http://www.w3.org/2000/svg" xml:space="preserve" width="19.05mm" height="12.7mm" version="1.1" style="shape-rendering:geometricPrecision; text-rendering:geometricPrecision; image-rendering:optimizeQuality; fill-rule:evenodd; clip-rule:evenodd"
viewBox="0 0 1905 1270"
 xmlns:xlink="http://www.w3.org/1999/xlink">
 <defs>
  <style type="text/css">
   <![CDATA[
    .fil0 {fill:#FEFEFE}
    .fil1 {fill:#333030}
    .fil2 {fill:#ED7C4B}
   ]]>
  </style>
 </defs>
 <g id="Warstwa_x0020_1">
  <metadata id="CorelCorpID_0Corel-Layer"/>
  <g id="_3291256387872">
   <path class="fil0" d="M1618 135l-1107 0c-208,0 -378,170 -378,377l0 554c0,44 36,80 81,80l1108 0c207,0 377,-169 377,-377l0 -553c0,-45 -36,-81 -81,-81z"/>
   <polygon class="fil1" points="722,448 815,448 815,537 722,625 "/>
   <polygon class="fil1" points="721,720 989,455 1111,456 725,827 "/>
   <polygon class="fil1" points="903,764 963,696 1091,832 981,832 "/>
  </g>
  <g id="_3291256386144">
   <polygon class="fil2" points="450,232 694,232 435,632 176,629 "/>
   <polygon class="fil1" points="316,426 457,629 692,1037 453,1036 176,629 "/>
   <polygon class="fil2" points="1351,1036 1108,1032 1372,636 1631,643 "/>
   <polygon class="fil1" points="1490,846 1351,639 1124,232 1360,231 1631,643 "/>
   <polygon class="fil2" points="1360,1037 1116,1037 1375,637 1634,640 "/>
   <polygon class="fil1" points="1494,842 1353,640 1117,232 1356,232 1634,640 "/>
  </g>
 </g>
</svg>
